<?xml version="1.0" encoding="UTF-8"?>
<svg width="128px" height="176px" viewBox="0 0 128 176" version="1.1" xmlns="http://www.w3.org/2000/svg" xmlns:xlink="http://www.w3.org/1999/xlink">
    <!-- Generator: Sketch 55 (78076) - https://sketchapp.com -->
    <title>Layer_1</title>
    <desc>Created with Sketch.</desc>
    <g id="Buddi" stroke="none" stroke-width="1" fill="none" fill-rule="evenodd">
        <g id="Buddi-Portfolio" transform="translate(-801.000000, -858.000000)" fill="#FFFFFF" fill-rule="nonzero">
            <g id="Layer_1" transform="translate(801.000000, 858.000000)">
                <path d="M64,156.5 C39.1,156.5 18.8,136.2 18.8,111.3 L19.2,59.2 L19.2,59.1 C19.2,36.3 38.1,17.8 61,18.4 C83.3,19 101,38.2 100.5,60.5 C100.5,60.7 100.5,60.9 100.5,61.1 C100.5,61.1 100.5,61.1 100.5,61.1 C92.3,56.1 82.9,53.2 73.4,53 C56.3,52.6 42,66.3 42.2,83.3 C42.3,99.8 55.8,113.1 72.3,113.1 C84.7,113.1 95.4,109 103.5,101.2 C104,100.7 104.2,99.9 103.9,99.2 C101.9,93.3 98.6,88.6 95.2,85.6 C94.9,85.3 94.4,85.1 94,85.1 C93.4,85.1 92.9,85.4 92.5,85.8 C92.5,85.8 92.5,85.8 92.5,85.8 C87.7,91.5 81,94.4 72.6,94.5 C66.2,94.5 60.7,89.3 60.7,82.9 C60.7,76.5 65.9,71.4 72.3,71.3 C81.1,71.2 89.3,74.5 96.1,80.5 C96.1,80.5 104.4,88.5 107.1,97.3 L107.1,97.3 C107.1,97.3 107.1,97.3 107.1,97.3 C108.5,101.5 109.3,106.1 109.3,111.2 C109.3,136.3 89,156.5 64,156.5 M117.1,76.7 C117.1,76.7 117.1,76.7 117.1,76.7 C118.4,71.3 119.1,65.4 119.1,59.2 C119.1,26.6 92.6,0.1 60,0.1 C27.4,0.1 0.9,26.6 0.9,59.2 L0.5,111.3 L0.5,111.4 C0.5,146.5 29.1,175.1 64.2,175.1 C99.3,175.1 127.9,146.5 127.9,111.4 C127.7,98.5 124,86.5 117.1,76.7" id="Shape"></path>
            </g>
        </g>
    </g>
</svg>