<?xml version="1.0" encoding="UTF-8"?>
<svg width="427px" height="128px" viewBox="0 0 427 128" version="1.1" xmlns="http://www.w3.org/2000/svg" xmlns:xlink="http://www.w3.org/1999/xlink">
    <!-- Generator: Sketch 55 (78076) - https://sketchapp.com -->
    <title>Group 8</title>
    <desc>Created with Sketch.</desc>
    <g id="Motto" stroke="none" stroke-width="1" fill="none" fill-rule="evenodd">
        <g id="Motto-Portfolio" transform="translate(-196.000000, -990.000000)">
            <g id="Group-8" transform="translate(194.000000, 990.000000)">
                <g id="Group-4" transform="translate(4.942529, 0.000000)" fill="#003068">
                    <path d="M138.615964,127.56991 C125.982248,127.56991 117.03842,124.554103 111.784211,118.522398 C106.530002,112.490694 103.902937,102.538531 103.902937,88.6656109 L103.902937,22.2568778 L62.8140485,119.427149 L58.032152,119.427149 L11.0987229,19.3616742 L11.0987229,119.427149 L2.95178799,119.427149 L2.95178799,0 L22.610696,0 L65.2935504,91.0179638 L103.72583,0 L124.093167,0 L124.093167,88.6656109 C124.093167,99.884581 125.214836,108.358998 127.458206,114.089118 C129.701576,119.819237 133.420791,122.925518 138.615964,123.408054 L138.615964,127.56991 Z M177.815709,121.236652 C169.432589,121.236652 162.171263,119.276377 156.031513,115.355769 C149.891764,111.435161 145.16895,106.127341 141.862931,99.4321493 C138.556912,92.7369575 136.903927,85.2275982 136.903927,76.9038462 C136.903927,68.5800941 138.556912,61.0707348 141.862931,54.375543 C145.16895,47.6803511 149.891764,42.3725309 156.031513,38.4519231 C162.171263,34.5313152 169.432589,32.5710407 177.815709,32.5710407 C186.198829,32.5710407 193.489672,34.5313152 199.688458,38.4519231 C205.887244,42.3725309 210.639575,47.6803511 213.945594,54.375543 C217.251613,61.0707348 218.904598,68.5800941 218.904598,76.9038462 C218.904598,85.2275982 217.251613,92.7369575 213.945594,99.4321493 C210.639575,106.127341 205.887244,111.435161 199.688458,115.355769 C193.489672,119.276377 186.198829,121.236652 177.815709,121.236652 Z M177.815709,113.455792 C184.073531,113.455792 189.002967,110.04793 192.604167,103.232104 C196.205366,96.4162781 198.005939,87.6402799 198.005939,76.9038462 C198.005939,66.1674124 196.205366,57.3914142 192.604167,50.5755882 C189.002967,43.7597623 184.073531,40.3519005 177.815709,40.3519005 C171.557887,40.3519005 166.657968,43.7597623 163.115805,50.5755882 C159.573641,57.3914142 157.802586,66.1674124 157.802586,76.9038462 C157.802586,87.6402799 159.573641,96.4162781 163.115805,103.232104 C166.657968,110.04793 171.557887,113.455792 177.815709,113.455792 Z M256.097126,121.236652 C248.540511,121.236652 242.666512,119.125587 238.474952,114.903394 C234.283392,110.681201 232.187644,104.408322 232.187644,96.0845701 L232.187644,42.1614027 L220.852778,42.1614027 L220.852778,34.380543 L232.187644,34.380543 L232.187644,18.0950226 L241.043008,7.23800905 L252.377874,7.23800905 L252.377874,34.380543 L272.568103,34.380543 L272.568103,42.1614027 L252.377874,42.1614027 L252.377874,96.6274208 C252.377874,102.659125 253.233884,106.971729 254.945929,109.565362 C256.657975,112.158995 259.28504,113.455792 262.827203,113.455792 C267.66816,113.455792 272.213868,112.008205 276.464464,109.112986 L278.766858,113.636742 C272.627109,118.703374 265.070607,121.236652 256.097126,121.236652 Z M317.553352,121.236652 C309.996737,121.236652 304.122738,119.125587 299.931178,114.903394 C295.739618,110.681201 293.64387,104.408322 293.64387,96.0845701 L293.64387,42.1614027 L282.309004,42.1614027 L282.309004,34.380543 L293.64387,34.380543 L293.64387,18.0950226 L302.499234,7.23800905 L313.8341,7.23800905 L313.8341,34.380543 L334.02433,34.380543 L334.02433,42.1614027 L313.8341,42.1614027 L313.8341,96.6274208 C313.8341,102.659125 314.69011,106.971729 316.402155,109.565362 C318.114201,112.158995 320.741266,113.455792 324.283429,113.455792 C329.124386,113.455792 333.670094,112.008205 337.92069,109.112986 L340.223084,113.636742 C334.083335,118.703374 326.526833,121.236652 317.553352,121.236652 Z M382.138474,121.236652 C373.755354,121.236652 366.494028,119.276377 360.354278,115.355769 C354.214529,111.435161 349.491715,106.127341 346.185696,99.4321493 C342.879677,92.7369575 341.226692,85.2275982 341.226692,76.9038462 C341.226692,68.5800941 342.879677,61.0707348 346.185696,54.375543 C349.491715,47.6803511 354.214529,42.3725309 360.354278,38.4519231 C366.494028,34.5313152 373.755354,32.5710407 382.138474,32.5710407 C390.521594,32.5710407 397.812437,34.5313152 404.011223,38.4519231 C410.210009,42.3725309 414.96234,47.6803511 418.268359,54.375543 C421.574378,61.0707348 423.227363,68.5800941 423.227363,76.9038462 C423.227363,85.2275982 421.574378,92.7369575 418.268359,99.4321493 C414.96234,106.127341 410.210009,111.435161 404.011223,115.355769 C397.812437,119.276377 390.521594,121.236652 382.138474,121.236652 Z M382.138474,113.455792 C388.396296,113.455792 393.325732,110.04793 396.926932,103.232104 C400.528131,96.4162781 402.328704,87.6402799 402.328704,76.9038462 C402.328704,66.1674124 400.528131,57.3914142 396.926932,50.5755882 C393.325732,43.7597623 388.396296,40.3519005 382.138474,40.3519005 C375.880652,40.3519005 370.980733,43.7597623 367.43857,50.5755882 C363.896406,57.3914142 362.125351,66.1674124 362.125351,76.9038462 C362.125351,87.6402799 363.896406,96.4162781 367.43857,103.232104 C370.980733,110.04793 375.880652,113.455792 382.138474,113.455792 Z" id="Motto"></path>
                </g>
                <g id="Group-4" fill="#FFFFFF">
                    <path d="M138.615964,127.56991 C125.982248,127.56991 117.03842,124.554103 111.784211,118.522398 C106.530002,112.490694 103.902937,102.538531 103.902937,88.6656109 L103.902937,22.2568778 L62.8140485,119.427149 L58.032152,119.427149 L11.0987229,19.3616742 L11.0987229,119.427149 L2.95178799,119.427149 L2.95178799,0 L22.610696,0 L65.2935504,91.0179638 L103.72583,0 L124.093167,0 L124.093167,88.6656109 C124.093167,99.884581 125.214836,108.358998 127.458206,114.089118 C129.701576,119.819237 133.420791,122.925518 138.615964,123.408054 L138.615964,127.56991 Z M177.815709,121.236652 C169.432589,121.236652 162.171263,119.276377 156.031513,115.355769 C149.891764,111.435161 145.16895,106.127341 141.862931,99.4321493 C138.556912,92.7369575 136.903927,85.2275982 136.903927,76.9038462 C136.903927,68.5800941 138.556912,61.0707348 141.862931,54.375543 C145.16895,47.6803511 149.891764,42.3725309 156.031513,38.4519231 C162.171263,34.5313152 169.432589,32.5710407 177.815709,32.5710407 C186.198829,32.5710407 193.489672,34.5313152 199.688458,38.4519231 C205.887244,42.3725309 210.639575,47.6803511 213.945594,54.375543 C217.251613,61.0707348 218.904598,68.5800941 218.904598,76.9038462 C218.904598,85.2275982 217.251613,92.7369575 213.945594,99.4321493 C210.639575,106.127341 205.887244,111.435161 199.688458,115.355769 C193.489672,119.276377 186.198829,121.236652 177.815709,121.236652 Z M177.815709,113.455792 C184.073531,113.455792 189.002967,110.04793 192.604167,103.232104 C196.205366,96.4162781 198.005939,87.6402799 198.005939,76.9038462 C198.005939,66.1674124 196.205366,57.3914142 192.604167,50.5755882 C189.002967,43.7597623 184.073531,40.3519005 177.815709,40.3519005 C171.557887,40.3519005 166.657968,43.7597623 163.115805,50.5755882 C159.573641,57.3914142 157.802586,66.1674124 157.802586,76.9038462 C157.802586,87.6402799 159.573641,96.4162781 163.115805,103.232104 C166.657968,110.04793 171.557887,113.455792 177.815709,113.455792 Z M256.097126,121.236652 C248.540511,121.236652 242.666512,119.125587 238.474952,114.903394 C234.283392,110.681201 232.187644,104.408322 232.187644,96.0845701 L232.187644,42.1614027 L220.852778,42.1614027 L220.852778,34.380543 L232.187644,34.380543 L232.187644,18.0950226 L241.043008,7.23800905 L252.377874,7.23800905 L252.377874,34.380543 L272.568103,34.380543 L272.568103,42.1614027 L252.377874,42.1614027 L252.377874,96.6274208 C252.377874,102.659125 253.233884,106.971729 254.945929,109.565362 C256.657975,112.158995 259.28504,113.455792 262.827203,113.455792 C267.66816,113.455792 272.213868,112.008205 276.464464,109.112986 L278.766858,113.636742 C272.627109,118.703374 265.070607,121.236652 256.097126,121.236652 Z M317.553352,121.236652 C309.996737,121.236652 304.122738,119.125587 299.931178,114.903394 C295.739618,110.681201 293.64387,104.408322 293.64387,96.0845701 L293.64387,42.1614027 L282.309004,42.1614027 L282.309004,34.380543 L293.64387,34.380543 L293.64387,18.0950226 L302.499234,7.23800905 L313.8341,7.23800905 L313.8341,34.380543 L334.02433,34.380543 L334.02433,42.1614027 L313.8341,42.1614027 L313.8341,96.6274208 C313.8341,102.659125 314.69011,106.971729 316.402155,109.565362 C318.114201,112.158995 320.741266,113.455792 324.283429,113.455792 C329.124386,113.455792 333.670094,112.008205 337.92069,109.112986 L340.223084,113.636742 C334.083335,118.703374 326.526833,121.236652 317.553352,121.236652 Z M382.138474,121.236652 C373.755354,121.236652 366.494028,119.276377 360.354278,115.355769 C354.214529,111.435161 349.491715,106.127341 346.185696,99.4321493 C342.879677,92.7369575 341.226692,85.2275982 341.226692,76.9038462 C341.226692,68.5800941 342.879677,61.0707348 346.185696,54.375543 C349.491715,47.6803511 354.214529,42.3725309 360.354278,38.4519231 C366.494028,34.5313152 373.755354,32.5710407 382.138474,32.5710407 C390.521594,32.5710407 397.812437,34.5313152 404.011223,38.4519231 C410.210009,42.3725309 414.96234,47.6803511 418.268359,54.375543 C421.574378,61.0707348 423.227363,68.5800941 423.227363,76.9038462 C423.227363,85.2275982 421.574378,92.7369575 418.268359,99.4321493 C414.96234,106.127341 410.210009,111.435161 404.011223,115.355769 C397.812437,119.276377 390.521594,121.236652 382.138474,121.236652 Z M382.138474,113.455792 C388.396296,113.455792 393.325732,110.04793 396.926932,103.232104 C400.528131,96.4162781 402.328704,87.6402799 402.328704,76.9038462 C402.328704,66.1674124 400.528131,57.3914142 396.926932,50.5755882 C393.325732,43.7597623 388.396296,40.3519005 382.138474,40.3519005 C375.880652,40.3519005 370.980733,43.7597623 367.43857,50.5755882 C363.896406,57.3914142 362.125351,66.1674124 362.125351,76.9038462 C362.125351,87.6402799 363.896406,96.4162781 367.43857,103.232104 C370.980733,110.04793 375.880652,113.455792 382.138474,113.455792 Z" id="Motto"></path>
                </g>
            </g>
        </g>
    </g>
</svg>